<?xml version="1.0" encoding="UTF-8" standalone="no"?>
<!DOCTYPE svg PUBLIC "-//W3C//DTD SVG 1.1//EN" "http://www.w3.org/Graphics/SVG/1.1/DTD/svg11.dtd">
<svg xmlns="http://www.w3.org/2000/svg" version="1.1" viewBox="0 0 459 416">
<path fill="#000000" d="M 429.75,244.16 Q 434.21,246.49 438.19,250.31 Q 441.11,253.12 440.14,257.01 A 1.26,0.96 88.7 0 1 439.58,257.78 L 433.78,260.76 A 1.34,0.93 32.9 0 1 432.84,260.79 Q 428.65,259.42 425.19,256.78 Q 421.65,254.07 421.55,254.00 Q 414.04,248.76 406.69,243.31 Q 404.97,242.04 399.27,239.56 Q 396.97,238.56 394.40,238.59 Q 385.11,238.70 375.81,238.94 Q 374.30,238.98 372.81,237.94 Q 369.87,235.88 366.32,235.92 A 1.64,1.36 57.6 0 1 365.42,235.63 Q 364.48,234.98 363.36,234.96 Q 362.90,234.95 361.39,235.58 Q 360.16,236.09 358.50,236.00 Q 353.30,235.72 349.14,235.21 Q 342.91,234.44 339.82,234.32 Q 297.56,232.69 255.62,231.51 A 2.77,2.75 -64.8 0 0 253.71,232.21 Q 249.81,235.73 245.44,237.54 Q 243.07,238.52 241.67,239.88 Q 237.32,244.13 229.69,252.19 Q 224.93,257.22 221.70,262.57 Q 218.94,267.15 217.53,273.02 Q 216.21,278.54 215.73,284.21 Q 215.45,287.43 216.18,291.73 Q 216.81,295.48 217.25,299.25 Q 217.83,304.23 218.61,307.80 Q 219.23,310.62 219.86,313.43 Q 220.49,316.20 220.70,319.14 Q 221.44,329.54 222.25,333.00 Q 225.02,344.76 227.22,356.63 Q 227.23,356.71 227.84,358.94 Q 228.21,360.30 228.06,361.76 A 1.49,1.45 -58.7 0 0 228.27,362.68 Q 231.06,367.28 231.24,372.33 Q 231.30,374.11 232.85,374.99 Q 237.59,377.67 241.38,379.91 Q 248.91,384.36 253.80,392.78 A 2.19,2.17 -50.7 0 1 253.97,394.61 Q 250.93,403.09 241.77,402.09 Q 239.93,401.89 238.06,401.92 A 1.27,1.24 64.9 0 1 237.20,401.60 Q 234.55,399.14 231.29,397.65 Q 229.57,396.86 228.10,395.79 Q 226.60,394.69 224.93,393.82 Q 211.86,387.02 199.80,378.57 Q 198.22,377.45 195.96,375.13 Q 194.17,373.29 192.03,371.70 A 2.69,2.68 19.7 0 1 190.96,369.44 Q 191.30,361.52 190.42,354.10 Q 189.78,348.70 187.15,339.19 Q 175.63,297.48 171.94,285.56 Q 170.69,281.52 166.72,278.06 Q 164.99,276.55 162.29,275.97 Q 118.93,266.63 105.25,264.50 Q 87.25,261.70 50.73,259.34 Q 50.67,259.34 47.78,259.04 Q 44.98,258.75 42.56,259.36 A 2.19,2.17 -27.2 0 1 40.35,258.66 L 10.01,222.95 A 1.03,1.01 31.6 0 1 9.79,222.07 Q 11.03,216.75 15.30,214.58 Q 18.45,212.98 23.76,213.81 Q 34.26,215.44 43.44,221.06 Q 45.83,222.53 50.83,225.31 Q 53.48,226.79 56.13,227.02 Q 63.98,227.71 71.57,225.77 Q 77.03,224.38 79.72,224.13 Q 91.12,223.10 99.75,224.00 Q 111.98,225.28 120.50,224.50 Q 121.55,224.40 124.54,223.27 Q 126.57,222.50 128.59,222.23 Q 143.69,220.23 152.94,216.94 Q 160.32,214.30 164.95,213.52 A 1.88,1.75 17.6 0 0 165.82,213.11 Q 178.04,202.37 186.56,188.48 Q 186.79,188.11 187.24,187.81 Q 188.81,186.79 189.13,184.94 A 2.04,1.56 76.3 0 1 189.52,184.05 Q 191.87,181.31 194.00,177.00 Q 196.68,171.56 201.01,164.85 Q 203.00,161.78 203.95,158.59 Q 207.00,148.36 207.00,146.00 Q 206.99,135.55 208.00,121.75 Q 208.20,119.04 207.40,115.71 Q 205.58,108.16 203.90,100.58 Q 202.24,93.12 201.33,85.29 Q 199.45,69.13 197.71,50.94 A 2.79,2.76 21.1 0 0 196.98,49.32 Q 195.26,47.46 192.87,45.97 Q 190.09,44.23 188.54,43.01 Q 186.47,41.37 184.23,39.95 A 1.76,1.46 8.7 0 1 183.60,39.24 Q 181.33,34.08 187.47,30.74 A 4.05,3.13 30.3 0 1 189.93,30.42 L 195.18,31.37 A 0.40,0.39 1.7 0 0 195.65,30.94 Q 195.32,28.48 192.50,26.75 Q 189.97,25.20 187.14,23.95 Q 186.17,23.52 187.04,22.90 Q 188.81,21.64 190.71,20.33 Q 192.95,18.79 194.65,18.24 Q 201.24,16.13 205.68,21.11 Q 207.05,22.65 206.54,20.65 Q 204.43,12.44 212.50,11.75 Q 215.65,11.48 218.30,13.36 Q 220.42,14.86 221.66,17.94 Q 223.43,22.31 223.50,26.97 Q 223.52,28.71 224.93,27.69 Q 229.50,24.39 234.66,26.46 Q 235.56,26.83 236.23,27.53 Q 240.56,32.14 238.68,36.70 Q 237.52,39.52 235.80,42.04 Q 233.37,45.59 231.99,50.50 Q 230.85,54.57 230.99,59.62 Q 231.21,67.40 233.00,74.25 Q 234.16,78.68 234.65,82.55 Q 235.04,85.59 234.81,90.97 Q 234.51,98.14 234.30,105.31 Q 234.26,106.85 235.04,109.02 Q 235.64,110.70 235.76,112.50 Q 235.90,114.81 236.31,115.92 Q 237.64,119.47 239.91,122.55 Q 241.95,125.34 243.22,128.64 Q 243.48,129.32 243.84,128.69 Q 248.33,121.00 254.13,114.64 Q 260.43,107.73 267.36,103.53 Q 289.08,90.38 314.06,103.44 Q 317.10,105.02 318.61,106.65 Q 323.60,112.02 326.89,118.59 Q 330.26,125.35 330.61,132.62 Q 330.94,139.29 328.33,146.62 Q 325.43,154.75 319.88,161.62 Q 309.78,174.11 296.12,181.89 A 0.65,0.64 46.3 0 0 296.10,183.00 Q 300.41,185.75 304.75,188.34 Q 308.05,190.30 311.66,191.17 Q 316.61,192.35 324.50,194.00 Q 327.54,194.64 329.50,194.45 Q 333.31,194.09 336.69,195.81 Q 339.50,197.24 342.49,198.18 Q 344.45,198.80 348.59,199.37 Q 353.08,199.98 357.49,201.05 Q 370.09,204.09 382.63,207.40 Q 386.69,208.47 390.58,209.22 Q 394.58,209.99 398.58,210.75 Q 403.74,211.74 406.48,211.40 Q 410.86,210.85 414.06,208.31 Q 415.48,207.19 419.93,202.53 Q 421.66,200.72 423.56,200.34 Q 427.65,199.53 431.57,201.42 Q 434.54,202.85 434.86,205.54 Q 435.11,207.61 433.33,209.93 Q 430.79,213.25 427.18,215.12 Q 424.98,216.26 427.44,216.56 Q 435.68,217.56 442.88,216.12 A 3.64,3.60 -36.3 0 1 445.25,216.47 Q 455.43,221.80 447.90,230.19 A 1.40,1.37 -73.7 0 1 447.08,230.65 Q 443.87,231.23 440.60,231.02 Q 440.21,231.00 439.90,231.08 Q 438.42,231.49 440.49,232.02 Q 444.91,233.16 448.64,236.23 A 1.30,1.29 -60.9 0 1 449.04,237.66 Q 446.52,244.91 440.18,245.02 Q 438.78,245.04 435.36,243.85 Q 432.98,243.01 430.45,242.73 Q 429.10,242.58 429.19,243.45 A 1.06,0.76 16.1 0 0 429.75,244.16 ZM 197.80,35.12 Q 195.91,33.66 193.60,33.30 Q 189.84,32.71 189.59,32.71 Q 187.51,32.72 185.73,35.09 Q 184.45,36.78 186.05,38.16 Q 190.35,41.88 195.32,44.92 Q 197.63,46.34 199.27,48.68 Q 199.96,49.67 200.07,50.87 Q 201.30,65.05 202.56,77.07 Q 204.54,96.00 209.24,114.42 Q 210.30,118.58 210.23,122.22 Q 210.15,126.61 209.76,131.00 Q 209.19,137.46 209.21,143.95 Q 209.22,147.16 208.52,149.97 Q 207.78,152.93 207.01,155.88 Q 206.99,155.94 206.29,159.29 Q 205.80,161.67 204.69,163.44 Q 200.40,170.28 196.29,177.23 Q 191.32,185.66 188.35,190.05 Q 183.64,197.00 179.50,202.25 Q 174.49,208.59 167.12,215.17 A 1.69,1.56 18.2 0 1 166.26,215.56 Q 162.56,216.03 158.06,217.56 Q 148.35,220.87 136.19,223.44 Q 133.24,224.06 130.93,224.22 Q 128.13,224.41 126.22,225.10 Q 121.98,226.64 120.31,226.81 Q 111.90,227.68 103.50,226.80 Q 92.45,225.63 81.38,226.27 Q 78.37,226.44 73.40,227.71 Q 64.08,230.10 54.43,229.21 Q 52.17,229.00 50.06,227.66 Q 41.12,221.99 36.56,219.94 Q 28.87,216.47 19.87,215.77 Q 19.19,215.71 18.53,215.92 Q 13.30,217.60 12.40,221.70 A 1.05,0.98 31.5 0 0 12.64,222.57 L 41.48,256.55 A 1.00,0.98 67.2 0 0 42.31,256.90 Q 47.18,256.55 52.01,257.03 Q 61.97,258.02 62.02,258.02 Q 80.94,259.13 99.76,261.45 Q 102.23,261.75 114.50,264.00 Q 138.71,268.44 164.77,274.20 Q 166.46,274.57 167.66,275.82 Q 169.84,278.08 171.89,281.17 Q 173.59,283.71 174.66,287.33 Q 180.27,306.28 185.62,325.31 Q 190.93,344.18 191.02,344.56 Q 193.81,356.95 193.21,369.82 A 1.22,1.18 -65.8 0 0 193.52,370.68 Q 195.46,372.80 197.81,374.45 Q 212.44,384.69 228.17,393.14 Q 228.76,393.45 230.49,394.77 Q 231.65,395.66 233.08,396.07 Q 233.53,396.20 233.91,396.54 L 237.11,399.43 A 1.37,1.13 -20.4 0 0 238.00,399.74 Q 240.72,399.73 243.41,400.02 Q 246.19,400.31 249.74,398.07 A 2.51,1.27 -20.6 0 0 250.78,396.94 L 251.68,394.25 A 1.36,0.81 48.9 0 0 251.51,393.31 Q 249.29,389.41 246.20,386.24 Q 243.89,383.89 239.11,381.17 Q 234.47,378.54 229.93,375.76 A 1.00,1.00 -38.1 0 1 229.45,375.00 Q 228.92,369.71 227.09,364.78 Q 226.05,361.99 225.68,360.24 Q 225.20,357.90 224.80,355.55 Q 224.18,351.85 223.33,348.55 Q 219.44,333.26 218.25,317.50 Q 218.04,314.77 215.46,304.11 Q 215.08,302.57 215.04,300.33 Q 215.00,298.41 214.67,296.53 Q 213.72,291.22 213.69,290.92 Q 212.59,277.91 217.39,265.85 Q 218.55,262.91 220.86,259.61 Q 224.17,254.85 225.06,253.81 Q 229.99,248.04 240.27,238.05 Q 241.77,236.60 244.11,235.61 Q 249.43,233.37 253.70,229.40 A 1.22,1.18 -64.4 0 1 254.56,229.08 Q 296.48,230.53 338.40,231.85 Q 342.17,231.97 348.03,232.79 Q 352.85,233.47 357.73,233.68 Q 358.86,233.73 362.20,233.13 Q 365.67,232.52 369.50,234.00 Q 375.81,236.44 377.19,236.56 Q 381.53,236.94 394.56,236.20 Q 397.04,236.06 399.14,236.97 Q 406.29,240.05 412.58,244.67 Q 419.64,249.86 426.75,255.00 Q 430.14,257.45 432.77,258.35 A 1.29,1.28 41.9 0 0 433.71,258.30 L 437.11,256.78 A 1.06,1.02 -6.9 0 0 437.69,256.07 Q 438.29,253.20 435.81,251.19 Q 431.11,247.36 428.58,246.01 Q 425.21,244.19 427.36,240.93 Q 427.72,240.37 428.17,239.86 A 0.79,0.76 28.4 0 1 428.97,239.64 Q 433.56,241.05 438.14,242.48 Q 443.49,244.14 446.17,238.57 A 1.32,1.32 -59.9 0 0 445.73,236.91 Q 443.08,235.07 440.26,234.22 Q 433.58,232.21 427.97,228.11 Q 427.56,227.81 428.06,227.88 Q 436.71,229.10 445.45,228.71 A 1.44,1.39 22.6 0 0 446.32,228.37 Q 451.38,224.00 446.44,219.56 Q 444.33,217.67 441.77,218.47 Q 439.34,219.22 438.45,219.24 Q 432.67,219.40 428.00,219.00 Q 424.53,218.70 421.69,216.38 A 0.33,0.32 -39.0 0 1 421.75,215.84 Q 427.10,213.05 431.39,208.85 A 1.90,1.05 88.4 0 0 431.83,208.00 L 432.40,205.67 A 1.02,0.80 -63.1 0 0 432.23,204.81 Q 429.76,202.17 426.06,202.44 Q 422.48,202.70 421.81,203.56 Q 416.30,210.68 406.89,213.78 Q 405.50,214.24 404.06,214.01 Q 394.12,212.40 384.35,210.15 Q 384.30,210.14 368.37,205.91 Q 356.61,202.78 344.55,201.04 Q 342.43,200.73 340.59,199.97 Q 338.67,199.17 336.77,198.35 Q 334.33,197.30 331.51,197.10 Q 322.56,196.46 313.91,194.05 Q 313.81,194.03 310.03,193.23 Q 307.92,192.79 306.04,191.69 Q 299.76,188.03 293.20,183.74 A 1.12,1.10 -40.7 0 0 292.13,183.67 Q 288.97,185.12 287.11,183.40 Q 285.34,181.78 285.28,181.74 Q 273.13,173.35 263.08,162.54 Q 262.13,161.52 261.26,160.16 Q 260.13,158.37 259.56,157.69 Q 250.31,146.52 241.31,135.15 A 0.78,0.74 -50.8 0 1 241.25,134.32 Q 241.80,133.28 241.93,132.15 Q 242.06,131.03 241.32,129.61 Q 238.09,123.38 234.31,117.44 Q 233.53,116.20 233.43,113.54 Q 233.36,111.78 232.68,109.73 Q 231.95,107.54 232.01,105.24 Q 232.10,101.98 232.02,100.76 Q 231.86,98.01 232.27,95.25 Q 233.80,84.82 230.97,74.69 Q 229.06,67.84 228.71,60.75 Q 228.15,49.36 234.32,40.10 Q 236.36,37.05 236.67,36.06 Q 237.49,33.48 236.36,31.15 Q 235.06,28.46 231.89,28.11 Q 228.74,27.76 226.06,29.56 Q 223.47,31.31 222.49,31.92 A 0.33,0.33 69.6 0 1 221.99,31.69 Q 221.33,27.35 220.75,23.00 Q 220.36,20.09 218.42,16.26 A 1.80,1.58 88.0 0 0 217.76,15.56 Q 215.30,14.20 212.53,14.19 Q 210.41,14.19 209.34,15.22 Q 207.97,16.54 208.55,18.99 Q 209.52,23.05 208.23,26.97 Q 208.07,27.45 207.75,27.05 Q 204.07,22.43 203.00,21.75 Q 197.20,18.07 191.25,22.75 A 0.41,0.41 -50.8 0 0 191.32,23.44 Q 195.95,25.81 198.06,30.43 Q 198.50,31.39 198.37,32.64 Q 198.26,33.79 198.21,34.94 Q 198.19,35.42 197.80,35.12 ZM 289.24,111.74 A 1.88,1.88 18.0 0 1 290.29,113.80 Q 289.76,116.50 292.20,115.72 Q 294.23,115.06 295.81,116.24 A 1.14,0.70 -79.2 0 1 296.12,117.06 Q 296.14,118.03 297.44,117.89 A 0.59,0.42 -4.0 0 1 298.08,118.28 L 298.18,121.49 A 1.30,1.14 80.4 0 0 299.72,122.74 Q 301.15,122.22 302.41,123.39 A 1.03,1.02 -26.8 0 0 303.24,123.66 Q 305.05,123.44 305.54,125.19 Q 306.02,126.93 307.75,126.75 A 2.35,0.58 58.8 0 1 309.25,128.25 Q 310.54,130.26 310.37,132.68 A 0.56,0.55 8.2 0 0 310.82,133.27 L 313.33,133.81 A 1.06,0.94 81.7 0 1 314.02,134.39 L 316.04,138.79 A 1.58,1.49 39.6 0 1 316.16,139.75 Q 315.27,144.00 311.69,146.44 Q 310.33,147.36 306.65,151.33 Q 306.32,151.68 306.80,151.75 Q 317.59,153.16 314.46,163.72 Q 314.32,164.19 314.67,163.83 Q 324.11,154.44 327.37,141.47 Q 329.53,132.83 327.19,125.31 Q 324.68,117.27 318.86,110.46 Q 315.91,106.99 311.64,104.76 Q 290.21,93.58 270.35,104.49 Q 262.13,109.01 254.97,117.12 Q 248.33,124.64 243.64,133.90 A 0.80,0.80 -51.1 0 0 243.73,134.76 Q 250.82,143.77 257.72,152.26 Q 257.96,152.56 258.32,153.18 Q 259.19,154.69 259.69,153.04 Q 259.75,152.84 260.15,152.20 L 262.82,147.97 A 1.04,0.70 52.2 0 0 262.76,147.06 Q 261.24,144.25 259.75,141.41 Q 258.75,139.51 258.75,137.34 Q 258.75,134.92 258.75,132.50 A 1.63,1.09 73.1 0 1 259.03,131.57 L 260.40,129.86 A 0.32,0.31 -61.3 0 0 260.26,129.36 Q 258.60,128.81 257.91,127.38 Q 257.77,127.09 257.04,124.63 Q 254.71,116.76 261.86,114.94 Q 265.84,113.92 267.12,114.07 Q 269.56,114.34 272.12,117.10 A 1.09,1.09 0.0 0 0 273.72,117.10 Q 275.34,115.35 277.64,112.67 Q 280.11,109.80 283.33,107.80 A 1.27,1.26 72.0 0 1 285.25,108.79 L 285.52,112.20 A 0.63,0.60 -89.6 0 0 286.06,112.78 Q 287.01,112.86 287.78,112.28 Q 288.78,111.52 289.24,111.74 ZM 274.50,119.79 Q 275.75,118.43 277.38,117.59 Q 277.72,117.41 277.88,117.15 Q 278.33,116.38 277.77,116.39 Q 277.49,116.39 277.18,116.66 Q 275.63,118.02 274.21,119.50 Q 273.03,121.47 271.81,120.68 Q 271.47,120.46 270.72,118.95 Q 270.10,117.71 268.59,116.64 Q 268.18,116.34 267.67,116.28 Q 261.75,115.54 259.24,119.82 A 1.73,0.95 71.5 0 0 259.07,120.75 L 259.32,124.68 A 1.02,1.00 16.1 0 0 259.75,125.44 L 262.05,127.08 A 0.97,0.81 45.4 0 0 263.02,127.17 Q 266.51,125.19 270.00,125.89 A 1.25,1.15 77.0 0 1 270.78,126.42 Q 274.74,132.35 278.83,138.18 Q 282.04,142.76 286.83,145.41 Q 291.39,147.94 291.40,147.94 Q 296.14,151.07 299.86,154.97 A 1.47,1.47 43.0 0 1 299.93,156.93 Q 298.82,158.25 299.87,159.13 Q 300.63,159.78 300.68,159.84 Q 302.20,161.44 303.96,162.77 Q 309.26,166.78 313.25,161.75 Q 314.78,159.82 313.21,157.23 A 1.77,1.34 2.8 0 0 312.48,156.62 Q 311.12,156.00 310.02,154.99 Q 308.37,153.47 304.91,154.24 Q 302.35,154.82 303.50,152.48 L 304.84,149.77 A 1.86,1.68 -6.2 0 1 305.48,149.05 Q 308.40,147.17 311.17,143.84 A 0.61,0.60 -46.6 0 0 311.15,143.06 Q 309.21,140.90 307.31,139.44 Q 302.80,135.97 299.21,131.54 Q 298.06,130.11 296.53,129.26 Q 294.61,128.19 293.76,127.28 Q 290.66,123.95 287.34,120.84 Q 286.55,120.10 284.00,118.42 Q 282.25,117.27 280.87,115.61 Q 279.28,113.70 278.28,115.49 A 0.32,0.28 15.2 0 0 278.56,115.91 Q 279.61,115.98 280.81,117.19 Q 285.00,121.38 287.04,124.73 Q 287.07,124.78 288.77,127.03 Q 290.24,128.97 287.55,130.34 A 0.90,0.87 52.8 0 0 287.38,131.77 L 293.13,137.27 A 1.09,1.05 43.7 0 0 294.65,137.26 Q 296.83,134.96 299.94,134.19 A 1.26,1.07 -26.0 0 1 301.12,134.49 L 307.88,141.94 A 1.46,1.35 -44.1 0 1 307.78,143.86 Q 306.33,145.33 304.56,147.31 Q 302.07,150.10 299.24,149.17 Q 297.61,148.63 295.41,146.06 Q 293.39,143.69 291.04,140.65 A 0.41,0.40 -26.5 0 1 291.26,140.01 Q 292.47,139.69 291.43,138.93 Q 290.98,138.60 290.76,138.36 Q 288.31,135.72 285.95,132.80 A 1.62,1.62 57.2 0 0 283.97,132.37 Q 280.07,134.29 278.25,131.76 Q 275.65,128.14 272.81,124.69 Q 270.73,122.16 273.06,121.06 Q 273.97,120.64 274.50,119.79 ZM 278.69,119.51 L 274.34,122.62 A 0.59,0.47 53.3 0 0 274.32,123.39 L 280.08,130.95 A 1.34,1.34 57.1 0 0 281.80,131.32 L 286.06,128.98 A 0.58,0.56 -25.9 0 0 286.32,128.28 Q 284.40,123.51 279.54,119.59 A 0.75,0.64 45.5 0 0 278.69,119.51 ZM 262.55,132.43 Q 264.38,132.99 265.74,135.02 Q 267.01,136.90 268.59,135.05 L 269.97,133.43 A 1.83,1.09 1.3 0 1 270.80,132.96 Q 272.23,132.58 271.54,131.52 Q 270.98,130.65 270.80,130.23 Q 269.99,128.37 268.20,127.46 A 1.15,1.05 -40.6 0 0 267.29,127.43 Q 255.87,132.14 262.71,143.25 Q 263.71,144.86 265.09,146.50 A 1.01,1.01 47.2 0 0 266.57,146.56 L 270.82,142.30 A 0.60,0.59 45.3 0 0 270.82,141.45 Q 269.56,140.19 268.59,139.16 Q 267.30,137.79 265.76,140.54 A 3.26,3.25 -85.7 0 1 264.07,142.00 Q 263.10,142.36 263.32,141.34 Q 263.40,140.98 263.70,140.62 Q 264.88,139.20 266.16,137.85 A 0.56,0.55 -42.6 0 0 266.20,137.11 Q 264.78,135.34 262.82,134.18 Q 261.88,133.63 261.95,132.80 A 0.47,0.43 11.1 0 1 262.55,132.43 ZM 269.94,135.94 Q 269.66,136.33 268.98,136.80 A 0.41,0.38 -40.8 0 0 268.91,137.43 L 272.02,140.14 A 0.66,0.61 -43.7 0 0 272.84,140.13 Q 277.10,136.74 272.72,133.60 A 0.61,0.61 -48.6 0 0 271.94,133.65 Q 270.82,134.69 269.94,135.94 ZM 294.99,140.03 Q 294.55,140.45 294.36,141.02 A 0.93,0.89 34.7 0 0 294.54,141.90 L 299.16,147.19 A 1.09,1.04 -32.5 0 0 300.41,147.43 Q 303.65,145.94 305.36,142.77 A 0.67,0.66 36.7 0 0 305.24,141.99 L 299.86,136.61 A 0.75,0.71 54.4 0 0 299.04,136.45 Q 297.02,137.39 295.75,139.21 Q 295.54,139.51 294.99,140.03 ZM 279.85,142.73 L 276.64,139.19 A 0.55,0.45 46.7 0 0 275.91,139.10 L 273.74,141.32 A 0.59,0.49 42.4 0 0 273.85,142.10 L 277.35,145.19 A 0.58,0.57 43.5 0 0 278.14,145.18 L 279.87,143.47 A 0.57,0.51 46.7 0 0 279.85,142.73 ZM 271.59,143.42 L 266.78,148.19 A 0.50,0.47 -45.4 0 0 266.76,148.88 L 271.07,153.20 A 0.63,0.58 41.5 0 0 271.97,153.18 L 276.67,147.29 A 0.59,0.59 -50.1 0 0 276.60,146.48 L 272.90,143.27 A 1.05,0.87 -46.2 0 0 271.59,143.42 ZM 288.46,149.00 Q 288.72,150.49 286.86,151.58 A 1.37,1.37 -37.8 0 0 286.59,153.73 Q 288.15,155.25 289.60,156.30 Q 289.64,156.32 291.38,157.77 Q 293.39,159.45 296.23,158.44 Q 298.27,157.72 297.73,156.09 Q 297.44,155.25 296.20,154.41 Q 292.38,151.84 288.96,148.75 Q 285.11,147.54 282.06,144.90 A 0.92,0.78 53.3 0 0 281.21,144.70 Q 280.06,145.13 279.51,146.23 A 0.72,0.68 36.1 0 0 279.66,147.05 L 283.89,151.10 A 1.28,1.25 -57.7 0 0 285.94,150.61 Q 286.76,148.54 288.46,149.00 ZM 274.66,155.24 Q 276.07,157.80 278.95,158.57 A 0.81,0.71 -61.6 0 0 279.73,158.28 L 283.67,153.38 A 0.50,0.48 39.4 0 0 283.59,152.71 L 278.85,148.61 A 0.60,0.52 44.3 0 0 278.12,148.57 Q 275.67,150.71 273.81,154.06 Q 273.52,154.59 273.95,154.75 A 1.38,0.62 10.5 0 1 274.66,155.24 ZM 263.85,150.82 L 261.06,155.20 A 0.81,0.79 -47.3 0 0 261.09,156.11 L 264.90,161.39 A 0.35,0.31 -51.4 0 0 265.46,161.30 Q 267.04,158.06 269.64,155.59 A 0.57,0.55 -40.5 0 0 269.71,154.85 Q 267.97,152.52 265.89,150.50 Q 265.62,150.24 265.33,149.82 Q 264.47,148.60 264.25,149.94 Q 264.18,150.29 263.85,150.82 ZM 284.83,154.46 L 281.45,158.46 Q 280.38,159.73 281.99,159.57 L 289.51,158.82 Q 290.03,158.77 289.64,158.40 L 285.53,154.42 A 0.48,0.48 -48.1 0 0 284.83,154.46 ZM 269.70,158.44 Q 268.06,160.59 266.95,163.04 A 0.75,0.74 34.4 0 0 267.11,163.86 Q 276.53,173.27 288.01,180.99 A 1.16,1.13 -76.2 0 1 288.51,181.84 Q 288.59,182.88 289.63,182.48 Q 292.31,181.47 294.79,180.02 Q 305.10,173.99 313.51,165.49 Q 314.60,164.39 313.23,165.11 Q 308.14,167.78 303.19,164.81 Q 302.10,164.16 298.78,160.68 A 1.26,1.03 64.7 0 0 297.94,160.28 L 294.32,160.28 A 1.44,0.89 -56.9 0 0 293.47,160.68 Q 292.63,161.45 291.54,161.32 Q 289.47,161.05 289.42,161.05 Q 286.00,161.21 282.58,161.24 Q 280.07,161.27 278.11,160.30 Q 276.01,159.27 274.08,157.91 Q 271.49,156.09 269.70,158.44 Z"/>
<path fill="#f1f1f1" d="M 198.21,34.94 Q 198.26,33.79 198.37,32.64 Q 198.50,31.39 198.06,30.43 Q 195.95,25.81 191.32,23.44 A 0.41,0.41 -50.8 0 1 191.25,22.75 Q 197.20,18.07 203.00,21.75 Q 204.07,22.43 207.75,27.05 Q 208.07,27.45 208.23,26.97 Q 209.52,23.05 208.55,18.99 Q 207.97,16.54 209.34,15.22 Q 210.41,14.19 212.53,14.19 Q 215.30,14.20 217.76,15.56 A 1.80,1.58 88.0 0 1 218.42,16.26 Q 220.36,20.09 220.75,23.00 Q 221.33,27.35 221.99,31.69 A 0.33,0.33 69.6 0 0 222.49,31.92 Q 223.47,31.31 226.06,29.56 Q 228.74,27.76 231.89,28.11 Q 235.06,28.46 236.36,31.15 Q 237.49,33.48 236.67,36.06 Q 236.36,37.05 234.32,40.10 Q 228.15,49.36 228.71,60.75 Q 229.06,67.84 230.97,74.69 Q 233.80,84.82 232.27,95.25 Q 231.86,98.01 232.02,100.76 Q 232.10,101.98 232.01,105.24 Q 231.95,107.54 232.68,109.73 Q 233.36,111.78 233.43,113.54 Q 233.53,116.20 234.31,117.44 Q 238.09,123.38 241.32,129.61 Q 242.06,131.03 241.93,132.15 Q 241.80,133.28 241.25,134.32 A 0.78,0.74 -50.8 0 0 241.31,135.15 Q 250.31,146.52 259.56,157.69 Q 260.13,158.37 261.26,160.16 Q 262.13,161.52 263.08,162.54 Q 273.13,173.35 285.28,181.74 Q 285.34,181.78 287.11,183.40 Q 288.97,185.12 292.13,183.67 A 1.12,1.10 -40.7 0 1 293.20,183.74 Q 299.76,188.03 306.04,191.69 Q 307.92,192.79 310.03,193.23 Q 313.81,194.03 313.91,194.05 Q 322.56,196.46 331.51,197.10 Q 334.33,197.30 336.77,198.35 Q 338.67,199.17 340.59,199.97 Q 342.43,200.73 344.55,201.04 Q 356.61,202.78 368.37,205.91 Q 384.30,210.14 384.35,210.15 Q 394.12,212.40 404.06,214.01 Q 405.50,214.24 406.89,213.78 Q 416.30,210.68 421.81,203.56 Q 422.48,202.70 426.06,202.44 Q 429.76,202.17 432.23,204.81 A 1.02,0.80 -63.1 0 1 432.40,205.67 L 431.83,208.00 A 1.90,1.05 88.4 0 1 431.39,208.85 Q 427.10,213.05 421.75,215.84 A 0.33,0.32 -39.0 0 0 421.69,216.38 Q 424.53,218.70 428.00,219.00 Q 432.67,219.40 438.45,219.24 Q 439.34,219.22 441.77,218.47 Q 444.33,217.67 446.44,219.56 Q 451.38,224.00 446.32,228.37 A 1.44,1.39 22.6 0 1 445.45,228.71 Q 436.71,229.10 428.06,227.88 Q 427.56,227.81 427.97,228.11 Q 433.58,232.21 440.26,234.22 Q 443.08,235.07 445.73,236.91 A 1.32,1.32 -59.9 0 1 446.17,238.57 Q 443.49,244.14 438.14,242.48 Q 433.56,241.05 428.97,239.64 A 0.79,0.76 28.4 0 0 428.17,239.86 Q 427.72,240.37 427.36,240.93 Q 425.21,244.19 428.58,246.01 Q 431.11,247.36 435.81,251.19 Q 438.29,253.20 437.69,256.07 A 1.06,1.02 -6.9 0 1 437.11,256.78 L 433.71,258.30 A 1.29,1.28 41.9 0 1 432.77,258.35 Q 430.14,257.45 426.75,255.00 Q 419.64,249.86 412.58,244.67 Q 406.29,240.05 399.14,236.97 Q 397.04,236.06 394.56,236.20 Q 381.53,236.94 377.19,236.56 Q 375.81,236.44 369.50,234.00 Q 365.67,232.52 362.20,233.13 Q 358.86,233.73 357.73,233.68 Q 352.85,233.47 348.03,232.79 Q 342.17,231.97 338.40,231.85 Q 296.48,230.53 254.56,229.08 A 1.22,1.18 -64.4 0 0 253.70,229.40 Q 249.43,233.37 244.11,235.61 Q 241.77,236.60 240.27,238.05 Q 229.99,248.04 225.06,253.81 Q 224.17,254.85 220.86,259.61 Q 218.55,262.91 217.39,265.85 Q 212.59,277.91 213.69,290.92 Q 213.72,291.22 214.67,296.53 Q 215.00,298.41 215.04,300.33 Q 215.08,302.57 215.46,304.11 Q 218.04,314.77 218.25,317.50 Q 219.44,333.26 223.33,348.55 Q 224.18,351.85 224.80,355.55 Q 225.20,357.90 225.68,360.24 Q 226.05,361.99 227.09,364.78 Q 228.92,369.71 229.45,375.00 A 1.00,1.00 63.4 0 0 229.93,375.76 Q 234.47,378.54 239.11,381.17 Q 243.89,383.89 246.20,386.24 Q 249.29,389.41 251.51,393.31 A 1.36,0.81 48.9 0 1 251.68,394.25 L 250.78,396.94 A 2.51,1.27 -20.6 0 1 249.74,398.07 Q 246.19,400.31 243.41,400.02 Q 240.72,399.73 238.00,399.74 A 1.37,1.13 -20.4 0 1 237.11,399.43 L 233.91,396.54 Q 233.53,396.20 233.08,396.07 Q 231.65,395.66 230.49,394.77 Q 228.76,393.45 228.17,393.14 Q 212.44,384.69 197.81,374.45 Q 195.46,372.80 193.52,370.68 A 1.22,1.18 -65.8 0 1 193.21,369.82 Q 193.81,356.95 191.02,344.56 Q 190.93,344.18 185.62,325.31 Q 180.27,306.28 174.66,287.33 Q 173.59,283.71 171.89,281.17 Q 169.84,278.08 167.66,275.82 Q 166.46,274.57 164.77,274.20 Q 138.71,268.44 114.50,264.00 Q 102.23,261.75 99.76,261.45 Q 80.94,259.13 62.02,258.02 Q 61.97,258.02 52.01,257.03 Q 47.18,256.55 42.31,256.90 A 1.00,0.98 67.2 0 1 41.48,256.55 L 12.64,222.57 A 1.05,0.98 31.5 0 1 12.40,221.70 Q 13.30,217.60 18.53,215.92 Q 19.19,215.71 19.87,215.77 Q 28.87,216.47 36.56,219.94 Q 41.12,221.99 50.06,227.66 Q 52.17,229.00 54.43,229.21 Q 64.08,230.10 73.40,227.71 Q 78.37,226.44 81.38,226.27 Q 92.45,225.63 103.50,226.80 Q 111.90,227.68 120.31,226.81 Q 121.98,226.64 126.22,225.10 Q 128.13,224.41 130.93,224.22 Q 133.24,224.06 136.19,223.44 Q 148.35,220.87 158.06,217.56 Q 162.56,216.03 166.26,215.56 A 1.69,1.56 18.2 0 0 167.12,215.17 Q 174.49,208.59 179.50,202.25 Q 183.64,197.00 188.35,190.05 Q 191.32,185.66 196.29,177.23 Q 200.40,170.28 204.69,163.44 Q 205.80,161.67 206.29,159.29 Q 206.99,155.94 207.01,155.88 Q 207.78,152.93 208.52,149.97 Q 209.22,147.16 209.21,143.95 Q 209.19,137.46 209.76,131.00 Q 210.15,126.61 210.23,122.22 Q 210.30,118.58 209.24,114.42 Q 204.54,96.00 202.56,77.07 Q 201.30,65.05 200.07,50.87 Q 199.96,49.67 199.27,48.68 Q 197.63,46.34 195.32,44.92 Q 190.35,41.88 186.05,38.16 Q 184.45,36.78 185.73,35.09 Q 187.51,32.72 189.59,32.71 Q 189.84,32.71 193.60,33.30 Q 195.91,33.66 197.80,35.12 Q 198.19,35.42 198.21,34.94 ZM 237.23,159.21 Q 235.06,157.81 233.57,155.70 Q 231.91,153.35 229.51,153.67 Q 227.63,153.93 226.25,155.90 Q 223.47,159.90 225.50,164.25 Q 226.57,166.53 229.13,167.49 Q 232.57,168.79 236.00,168.50 Q 238.99,168.25 239.18,165.96 Q 239.27,164.84 239.15,162.53 Q 239.04,160.38 237.23,159.21 ZM 255.91,192.32 Q 239.04,179.23 221.83,165.32 A 0.48,0.44 -53.7 0 0 221.17,165.45 L 214.99,174.54 A 1.51,1.41 -55.3 0 0 215.29,176.57 L 262.15,209.43 Q 263.44,210.33 263.25,208.77 Q 262.67,203.88 263.27,198.84 A 0.96,0.95 -66.6 0 0 262.94,198.00 Q 259.28,194.94 255.91,192.32 ZM 252.81,167.20 Q 251.38,166.37 250.13,165.33 A 0.83,0.77 -34.7 0 0 249.30,165.21 Q 247.86,165.81 246.46,165.22 A 0.78,0.67 31.5 0 0 245.65,165.35 Q 242.23,168.92 242.69,173.46 Q 243.10,177.40 246.30,179.24 Q 249.86,181.28 254.11,179.19 A 3.30,3.29 83.2 0 0 255.88,176.93 Q 257.43,169.87 252.81,167.20 Z"/>
<path fill="#f1f1f1" d="M 289.24,111.74 Q 288.78,111.52 287.78,112.28 Q 287.01,112.86 286.06,112.78 A 0.63,0.60 -89.6 0 1 285.52,112.20 L 285.25,108.79 A 1.27,1.26 72.0 0 0 283.33,107.80 Q 280.11,109.80 277.64,112.67 Q 275.34,115.35 273.72,117.10 A 1.09,1.09 -90.0 0 1 272.12,117.10 Q 269.56,114.34 267.12,114.07 Q 265.84,113.92 261.86,114.94 Q 254.71,116.76 257.04,124.63 Q 257.77,127.09 257.91,127.38 Q 258.60,128.81 260.26,129.36 A 0.32,0.31 -61.3 0 1 260.40,129.86 L 259.03,131.57 A 1.63,1.09 73.1 0 0 258.75,132.50 Q 258.75,134.92 258.75,137.34 Q 258.75,139.51 259.75,141.41 Q 261.24,144.25 262.76,147.06 A 1.04,0.70 52.2 0 1 262.82,147.97 L 260.15,152.20 Q 259.75,152.84 259.69,153.04 Q 259.19,154.69 258.32,153.18 Q 257.96,152.56 257.72,152.26 Q 250.82,143.77 243.73,134.76 A 0.80,0.80 -51.1 0 1 243.64,133.90 Q 248.33,124.64 254.97,117.12 Q 262.13,109.01 270.35,104.49 Q 290.21,93.58 311.64,104.76 Q 315.91,106.99 318.86,110.46 Q 324.68,117.27 327.19,125.31 Q 329.53,132.83 327.37,141.47 Q 324.11,154.44 314.67,163.83 Q 314.32,164.19 314.46,163.72 Q 317.59,153.16 306.80,151.75 Q 306.32,151.68 306.65,151.33 Q 310.33,147.36 311.69,146.44 Q 315.27,144.00 316.16,139.75 A 1.58,1.49 39.6 0 0 316.04,138.79 L 314.02,134.39 A 1.06,0.94 81.7 0 0 313.33,133.81 L 310.82,133.27 A 0.56,0.55 8.2 0 1 310.37,132.68 Q 310.54,130.26 309.25,128.25 A 2.35,0.58 58.8 0 0 307.75,126.75 Q 306.02,126.93 305.54,125.19 Q 305.05,123.44 303.24,123.66 A 1.03,1.02 -26.8 0 1 302.41,123.39 Q 301.15,122.22 299.72,122.74 A 1.30,1.14 80.4 0 1 298.18,121.49 L 298.08,118.28 A 0.59,0.42 -4.0 0 0 297.44,117.89 Q 296.14,118.03 296.12,117.06 A 1.14,0.70 -79.2 0 0 295.81,116.24 Q 294.23,115.06 292.20,115.72 Q 289.76,116.50 290.29,113.80 A 1.88,1.88 18.0 0 0 289.24,111.74 Z"/>
<path fill="#f1f1f1" d="M 274.21,119.50 Q 274.27,119.73 274.50,119.79 Q 273.97,120.64 273.06,121.06 Q 270.73,122.16 272.81,124.69 Q 275.65,128.14 278.25,131.76 Q 280.07,134.29 283.97,132.37 A 1.62,1.62 57.2 0 1 285.95,132.80 Q 288.31,135.72 290.76,138.36 Q 290.98,138.60 291.43,138.93 Q 292.47,139.69 291.26,140.01 A 0.41,0.40 -26.5 0 0 291.04,140.65 Q 293.39,143.69 295.41,146.06 Q 297.61,148.63 299.24,149.17 Q 302.07,150.10 304.56,147.31 Q 306.33,145.33 307.78,143.86 A 1.46,1.35 -44.1 0 0 307.88,141.94 L 301.12,134.49 A 1.26,1.07 -26.0 0 0 299.94,134.19 Q 296.83,134.96 294.65,137.26 A 1.09,1.05 43.7 0 1 293.13,137.27 L 287.38,131.77 A 0.90,0.87 52.8 0 1 287.55,130.34 Q 290.24,128.97 288.77,127.03 Q 287.07,124.78 287.04,124.73 Q 285.00,121.38 280.81,117.19 Q 279.61,115.98 278.56,115.91 A 0.32,0.28 15.2 0 1 278.28,115.49 Q 279.28,113.70 280.87,115.61 Q 282.25,117.27 284.00,118.42 Q 286.55,120.10 287.34,120.84 Q 290.66,123.95 293.76,127.28 Q 294.61,128.19 296.53,129.26 Q 298.06,130.11 299.21,131.54 Q 302.80,135.97 307.31,139.44 Q 309.21,140.90 311.15,143.06 A 0.61,0.60 -46.6 0 1 311.17,143.84 Q 308.40,147.17 305.48,149.05 A 1.86,1.68 -6.2 0 0 304.84,149.77 L 303.50,152.48 Q 302.35,154.82 304.91,154.24 Q 308.37,153.47 310.02,154.99 Q 311.12,156.00 312.48,156.62 A 1.77,1.34 2.8 0 1 313.21,157.23 Q 314.78,159.82 313.25,161.75 Q 309.26,166.78 303.96,162.77 Q 302.20,161.44 300.68,159.84 Q 300.63,159.78 299.87,159.13 Q 298.82,158.25 299.93,156.93 A 1.47,1.47 43.0 0 0 299.86,154.97 Q 296.14,151.07 291.40,147.94 Q 291.39,147.94 286.83,145.41 Q 282.04,142.76 278.83,138.18 Q 274.74,132.35 270.78,126.42 A 1.25,1.15 77.0 0 0 270.00,125.89 Q 266.51,125.19 263.02,127.17 A 0.97,0.81 45.4 0 1 262.05,127.08 L 259.75,125.44 A 1.02,1.00 16.1 0 1 259.32,124.68 L 259.07,120.75 A 1.73,0.95 71.5 0 1 259.24,119.82 Q 261.75,115.54 267.67,116.28 Q 268.18,116.34 268.59,116.64 Q 270.10,117.71 270.72,118.95 Q 271.47,120.46 271.81,120.68 Q 273.03,121.47 274.21,119.50 Z"/>
<path fill="#f1f1f1" d="M 274.50,119.79 Q 274.27,119.73 274.21,119.50 Q 275.63,118.02 277.18,116.66 Q 277.49,116.39 277.77,116.39 Q 278.33,116.38 277.88,117.15 Q 277.72,117.41 277.38,117.59 Q 275.75,118.43 274.50,119.79 Z"/>
<path fill="#f1f1f1" d="M 278.69,119.51 A 0.75,0.64 45.5 0 1 279.54,119.59 Q 284.40,123.51 286.32,128.28 A 0.58,0.56 -25.9 0 1 286.06,128.98 L 281.80,131.32 A 1.34,1.34 57.1 0 1 280.08,130.95 L 274.32,123.39 A 0.59,0.47 53.3 0 1 274.34,122.62 L 278.69,119.51 Z"/>
<path fill="#f1f1f1" d="M 261.95,132.80 Q 261.88,133.63 262.82,134.18 Q 264.78,135.34 266.20,137.11 A 0.56,0.55 -42.6 0 1 266.16,137.85 Q 264.88,139.20 263.70,140.62 Q 263.40,140.98 263.32,141.34 Q 263.10,142.36 264.07,142.00 A 3.26,3.25 -85.7 0 0 265.76,140.54 Q 267.30,137.79 268.59,139.16 Q 269.56,140.19 270.82,141.45 A 0.60,0.59 45.3 0 1 270.82,142.30 L 266.57,146.56 A 1.01,1.01 47.2 0 1 265.09,146.50 Q 263.71,144.86 262.71,143.25 Q 255.87,132.14 267.29,127.43 A 1.15,1.05 -40.6 0 1 268.20,127.46 Q 269.99,128.37 270.80,130.23 Q 270.98,130.65 271.54,131.52 Q 272.23,132.58 270.80,132.96 A 1.83,1.09 1.3 0 0 269.97,133.43 L 268.59,135.05 Q 267.01,136.90 265.74,135.02 Q 264.38,132.99 262.55,132.43 A 0.47,0.43 11.1 0 0 261.95,132.80 Z"/>
<path fill="#f1f1f1" d="M 269.94,135.94 Q 270.82,134.69 271.94,133.65 A 0.61,0.61 -48.6 0 1 272.72,133.60 Q 277.10,136.74 272.84,140.13 A 0.66,0.61 -43.7 0 1 272.02,140.14 L 268.91,137.43 A 0.41,0.38 -40.8 0 1 268.98,136.80 Q 269.66,136.33 269.94,135.94 Z"/>
<path fill="#f1f1f1" d="M 295.75,139.21 Q 297.02,137.39 299.04,136.45 A 0.75,0.71 54.4 0 1 299.86,136.61 L 305.24,141.99 A 0.67,0.66 36.7 0 1 305.36,142.77 Q 303.65,145.94 300.41,147.43 A 1.09,1.04 -32.5 0 1 299.16,147.19 L 294.54,141.90 A 0.93,0.89 34.7 0 1 294.36,141.02 Q 294.55,140.45 294.99,140.03 Q 295.54,139.51 295.75,139.21 Z"/>
<path fill="#f1f1f1" d="M 279.85,142.73 A 0.57,0.51 46.7 0 1 279.87,143.47 L 278.14,145.18 A 0.58,0.57 43.5 0 1 277.35,145.19 L 273.85,142.10 A 0.59,0.49 42.4 0 1 273.74,141.32 L 275.91,139.10 A 0.55,0.45 46.7 0 1 276.64,139.19 L 279.85,142.73 Z"/>
<path fill="#f1f1f1" d="M 271.59,143.42 A 1.05,0.87 -46.2 0 1 272.90,143.27 L 276.60,146.48 A 0.59,0.59 -50.1 0 1 276.67,147.29 L 271.97,153.18 A 0.63,0.58 41.5 0 1 271.07,153.20 L 266.76,148.88 A 0.50,0.47 -45.4 0 1 266.78,148.19 L 271.59,143.42 Z"/>
<path fill="#f1f1f1" d="M 288.96,148.75 Q 288.56,148.67 288.46,149.00 Q 286.76,148.54 285.94,150.61 A 1.28,1.25 -57.7 0 1 283.89,151.10 L 279.66,147.05 A 0.72,0.68 36.1 0 1 279.51,146.23 Q 280.06,145.13 281.21,144.70 A 0.92,0.78 53.3 0 1 282.06,144.90 Q 285.11,147.54 288.96,148.75 Z"/>
<path fill="#f1f1f1" d="M 273.95,154.75 Q 273.52,154.59 273.81,154.06 Q 275.67,150.71 278.12,148.57 A 0.60,0.52 44.3 0 1 278.85,148.61 L 283.59,152.71 A 0.50,0.48 39.4 0 1 283.67,153.38 L 279.73,158.28 A 0.81,0.71 -61.6 0 1 278.95,158.57 Q 276.07,157.80 274.66,155.24 A 1.38,0.62 10.5 0 0 273.95,154.75 Z"/>
<path fill="#f1f1f1" d="M 288.96,148.75 Q 292.38,151.84 296.20,154.41 Q 297.44,155.25 297.73,156.09 Q 298.27,157.72 296.23,158.44 Q 293.39,159.45 291.38,157.77 Q 289.64,156.32 289.60,156.30 Q 288.15,155.25 286.59,153.73 A 1.37,1.37 -37.8 0 1 286.86,151.58 Q 288.72,150.49 288.46,149.00 Q 288.56,148.67 288.96,148.75 Z"/>
<path fill="#f1f1f1" d="M 264.25,149.94 Q 264.47,148.60 265.33,149.82 Q 265.62,150.24 265.89,150.50 Q 267.97,152.52 269.71,154.85 A 0.57,0.55 -40.5 0 1 269.64,155.59 Q 267.04,158.06 265.46,161.30 A 0.35,0.31 -51.4 0 1 264.90,161.39 L 261.09,156.11 A 0.81,0.79 -47.3 0 1 261.06,155.20 L 263.85,150.82 Q 264.18,150.29 264.25,149.94 Z"/>
<path fill="#000000" d="M 237.23,159.21 Q 239.04,160.38 239.15,162.53 Q 239.27,164.84 239.18,165.96 Q 238.99,168.25 236.00,168.50 Q 232.57,168.79 229.13,167.49 Q 226.57,166.53 225.50,164.25 Q 223.47,159.90 226.25,155.90 Q 227.63,153.93 229.51,153.67 Q 231.91,153.35 233.57,155.70 Q 235.06,157.81 237.23,159.21 ZM 231.30,156.43 Q 229.91,155.09 228.34,156.49 Q 226.73,157.91 226.51,160.20 Q 226.32,162.24 227.73,163.79 Q 230.37,166.71 235.25,166.76 A 1.49,1.49 0.2 0 0 236.75,165.27 L 236.75,162.24 A 1.31,1.02 -72.8 0 0 236.42,161.37 L 231.30,156.43 Z"/>
<path fill="#f1f1f1" d="M 284.83,154.46 A 0.48,0.48 -48.1 0 1 285.53,154.42 L 289.64,158.40 Q 290.03,158.77 289.51,158.82 L 281.99,159.57 Q 280.38,159.73 281.45,158.46 L 284.83,154.46 Z"/>
<path fill="#f1f1f1" d="M 231.30,156.43 L 236.42,161.37 A 1.31,1.02 -72.8 0 1 236.75,162.24 L 236.75,165.27 A 1.49,1.49 0.2 0 1 235.25,166.76 Q 230.37,166.71 227.73,163.79 Q 226.32,162.24 226.51,160.20 Q 226.73,157.91 228.34,156.49 Q 229.91,155.09 231.30,156.43 Z"/>
<path fill="#f1f1f1" d="M 269.70,158.44 Q 271.49,156.09 274.08,157.91 Q 276.01,159.27 278.11,160.30 Q 280.07,161.27 282.58,161.24 Q 286.00,161.21 289.42,161.05 Q 289.47,161.05 291.54,161.32 Q 292.63,161.45 293.47,160.68 A 1.44,0.89 -56.9 0 1 294.32,160.28 L 297.94,160.28 A 1.26,1.03 64.7 0 1 298.78,160.68 Q 302.10,164.16 303.19,164.81 Q 308.14,167.78 313.23,165.11 Q 314.60,164.39 313.51,165.49 Q 305.10,173.99 294.79,180.02 Q 292.31,181.47 289.63,182.48 Q 288.59,182.88 288.51,181.84 A 1.16,1.13 -76.2 0 0 288.01,180.99 Q 276.53,173.27 267.11,163.86 A 0.75,0.74 34.4 0 1 266.95,163.04 Q 268.06,160.59 269.70,158.44 Z"/>
<path fill="#000000" d="M 255.91,192.32 Q 259.28,194.94 262.94,198.00 A 0.96,0.95 -66.6 0 1 263.27,198.84 Q 262.67,203.88 263.25,208.77 Q 263.44,210.33 262.15,209.43 L 215.29,176.57 A 1.51,1.41 -55.3 0 1 214.99,174.54 L 221.17,165.45 A 0.48,0.44 -53.7 0 1 221.83,165.32 Q 239.04,179.23 255.91,192.32 ZM 216.89,174.76 Q 216.72,174.84 216.64,174.97 A 0.70,0.45 34.5 0 0 216.96,175.72 Q 237.59,190.38 258.43,204.75 Q 258.87,205.06 259.59,205.75 Q 261.43,207.54 261.11,204.16 Q 261.03,203.33 261.09,202.34 Q 261.19,200.38 260.60,198.53 A 1.67,1.54 11.7 0 0 260.05,197.76 Q 242.55,184.00 225.24,170.01 Q 225.19,169.97 224.18,169.07 Q 221.85,167.01 220.51,169.34 Q 219.35,171.38 219.24,171.52 Q 218.23,172.93 217.35,174.41 A 1.02,0.48 -12.2 0 1 216.89,174.76 Z"/>
<path fill="#000000" d="M 252.81,167.20 Q 257.43,169.87 255.88,176.93 A 3.30,3.29 83.2 0 1 254.11,179.19 Q 249.86,181.28 246.30,179.24 Q 243.10,177.40 242.69,173.46 Q 242.23,168.92 245.65,165.35 A 0.78,0.67 31.5 0 1 246.46,165.22 Q 247.86,165.81 249.30,165.21 A 0.83,0.77 -34.7 0 1 250.13,165.33 Q 251.38,166.37 252.81,167.20 ZM 251.81,168.95 Q 250.60,168.16 249.44,167.31 Q 247.23,165.71 245.50,169.25 Q 243.19,173.98 246.71,176.79 Q 247.93,177.77 249.69,177.80 Q 251.33,177.83 252.94,177.54 A 1.15,1.09 8.4 0 0 253.70,177.01 Q 256.61,172.08 251.81,168.95 Z"/>
<path fill="#f1f1f1" d="M 251.81,168.95 Q 256.61,172.08 253.70,177.01 A 1.15,1.09 8.4 0 1 252.94,177.54 Q 251.33,177.83 249.69,177.80 Q 247.93,177.77 246.71,176.79 Q 243.19,173.98 245.50,169.25 Q 247.23,165.71 249.44,167.31 Q 250.60,168.16 251.81,168.95 Z"/>
<path fill="#f1f1f1" d="M 217.35,174.41 Q 218.23,172.93 219.24,171.52 Q 219.35,171.38 220.51,169.34 Q 221.85,167.01 224.18,169.07 Q 225.19,169.97 225.24,170.01 Q 242.55,184.00 260.05,197.76 A 1.67,1.54 11.7 0 1 260.60,198.53 Q 261.19,200.38 261.09,202.34 Q 261.03,203.33 261.11,204.16 Q 261.43,207.54 259.59,205.75 Q 258.87,205.06 258.43,204.75 Q 237.59,190.38 216.96,175.72 A 0.70,0.45 34.5 0 1 216.64,174.97 Q 216.72,174.84 216.89,174.76 A 1.02,0.48 -12.2 0 0 217.35,174.41 Z"/>
</svg>
